<svg width="22" height="30" viewBox="0 0 22 30" fill="none" xmlns="http://www.w3.org/2000/svg">
<path d="M10.9372 20.7525C16.3917 20.7525 20.8134 16.3308 20.8134 10.8763C20.8134 5.42175 16.3917 1 10.9372 1C5.48265 1 1.0609 5.42175 1.0609 10.8763C1.0609 16.3308 5.48265 20.7525 10.9372 20.7525Z" fill="#E53A3A" stroke="#E53A3A" stroke-miterlimit="10"/>
<path d="M10.9372 16.7122C14.1603 16.7122 16.7731 14.0994 16.7731 10.8763C16.7731 7.65314 14.1603 5.04028 10.9372 5.04028C7.71403 5.04028 5.10118 7.65314 5.10118 10.8763C5.10118 14.0994 7.71403 16.7122 10.9372 16.7122Z" fill="white"/>
<path d="M10.9371 29.5345C10.6846 29.5345 10.3199 29.1697 10.3199 29.1697C-0.341988 16.9086 1.06089 10.8762 1.06089 10.8762C1.06089 10.8762 4.14722 20.7244 10.9371 20.7525" fill="#E53A3A"/>
<path d="M10.9371 29.5345C11.1897 29.5345 11.5544 29.1697 11.5544 29.1697C22.2163 16.9086 20.8134 10.8762 20.8134 10.8762C20.8134 10.8762 17.7271 20.7244 10.9371 20.7525" fill="#E53A3A"/>
</svg>
